<mxfile host="app.diagrams.net" modified="2021-05-08T08:38:01.217Z" agent="5.0 (Windows NT 10.0; Win64; x64) AppleWebKit/537.36 (KHTML, like Gecko) Chrome/90.0.4430.93 Safari/537.36 Edg/90.0.818.56" etag="D-MeKJmCJs8qqe_x49ci" version="14.6.3" type="github">
  <diagram id="6T4YFYRuG9JY1WSueCSr" name="第 1 页">
    <mxGraphModel dx="1389" dy="840" grid="1" gridSize="10" guides="1" tooltips="1" connect="1" arrows="1" fold="1" page="1" pageScale="1" pageWidth="1169" pageHeight="827" math="0" shadow="0">
      <root>
        <mxCell id="0" />
        <mxCell id="1" parent="0" />
        <mxCell id="g_2Y7l3t8IoMAdNt34aa-1" value="" style="shape=image;verticalLabelPosition=bottom;labelBackgroundColor=#ffffff;verticalAlign=top;aspect=fixed;imageAspect=0;image=data:image/png,iVBORw0KGgoAAAANSUhEUgAABO0AAAH8CAYAAACNaVuHAAAgAElEQVR4Xuzde7xcZX0v/u8JREBFTczvSKJcAyQFL+WiyMUg2YkiHo7pkRfhFJGKFmi9AS+7SaygAjYx5xSs2BJa0VNAIRzP7ygUBbIhhIv8apUIaISEQgIIWrGIUWLZZOf3WmEPjuO+zKy1ZtYzs9/7HyXMep5nvb/PMHs+WWt9/1P4IUCAAAECBAgQIECAAAECBAgQIEAgKYH/lNRqLIYAAQIECBAgQIAAAQIECBAgQIAAgRDa2QQECBAgQIAAAQIECBAgQIAAAQIEEhMQ2iVWEMshQIAAAQIECBAgQIAAAQIECBAgILSzBwgQIECAAAECBAgQIECAAAECBAgkJiC0S6wglkOAAAECBAgQIECAAAECBAgQIEBAaGcPECBAgAABAgQIECBAgAABAgQIEEhMQGiXWEEshwABAgQIECBAgAABAgQIECBAgIDQzh4gQIAAAQIECBAgQIAAAQIECBAgkJiA0C6xglgOAQIECBAgQIAAAQIECBAgQIAAAaGdPUCAAAECBAgQIECAAAECBAgQIEAgMQGhXWIFsRwCBAgQIECAAAECBAgQIECAAAECQjt7gAABAgQIECBAgAABAgQIECBAgEBiAkK7xApiOQQIECBAgAABAgQIECBAgAABAgSEdvYAAQIECBAgQIAAAQIECBAgQIAAgcQEhHaJFcRyCBAgQIAAAQIECBAgQIAAAQIECAjt7AECBAgQIECAAAECBAgQIECAAAECiQkI7RIriOUQIECAAAECBAgQIECAAAECBAgQENrZAwQIECBAgAABAgQIECBAgAABAgQSExDaJVYQyyFAgAABAgQIECBAgAABAgQIECAgtLMHCBAgQIAAAQIECBAgQIAAAQIECCQmILRLrCCWQ4AAAQIECBAgQIAAAQIECBAgQEBoZw8QIECAAAECBAgQIECAAAECBAgQSExAaJdYQSyHAAECBAgQIECAAAECBAgQIECAgNDOHiBAgAABAgQIECBAgAABAgQIECCQmIDQLrGCWA4BAgQIECBAgAABAgQIECBAgAABoZ09QIAAAQIECBAgQIAAAQIECBAgQCAxAaFdYgWxHAIECBAgQIAAAQIECBAgQIAAAQJCO3uAAAECBAgQIECAAAECBAgQIECAQGICQrvECmI5BAgQIECAAAECBAgQIECAAAECBIR29gABAgQIECBAgAABAgQIECBAgACBxASEdokVxHIIECBAgAABAgQIECBAgAABAgQICO3sAQIECBAgQIAAAQIECBAgQIAAAQKJCQjtEiuI5RAgQIAAAQIECBAgQIAAAQIECBAQ2tkDBAgQIECAAAECBAgQIECAAAECBBITENolVhDLIUCAAAECBAgQIECAAAECBAgQICC0swcIECBAgAABAgQIECBAgAABAgQIJCYgtEusIJZDgAABAgQIECBAgAABAgQIECBAQGhnDxAgQIAAAQIECBAgQIAAAQIECBBITEBol1hBLIcAAQIECBAgQIAAAQIECBAgQICA0M4eIECAAAECBAgQIECAAAECBAgQIJCYgNAusYJYDgECBAgQIECAAAECBAgQIECAAAGhnT1AgAABAgQIECBAgAABAgQIECBAIDEBoV1iBbEcAgQIECBAgAABAgQIECBAgAABAkI7e4AAAQIECBAgQIAAAQIECBAgQIBAYgJCu8QKYjkECBAgQIAAAQIECBAgQIAAAQIEhHb2AAECBAgQIECAAAECBAgQIECAAIHEBIR2iRXEcggQIECAAAECBAgQIECAAAECBAgI7ewBAgQIECBAgAABAgQIECBAgAABAokJCO0SK4jlECBAgAABAgQIECBAgAABAgQIEBDa2QMECBAgQIAAAQIECBAgQIAAAQIEEhMQ2iVWEMshQIAAAQIECBAgQIAAAQIECBAgILSzBwgQIECAAAECBAgQIECAAAECBAgkJiC0S6wglkOAAAECBAgQIECAAAECBAgQIEBAaGcPECBAgAABAgQIECBAgAABAgQIEEhMQGiXWEEshwABAgQIECBAgAABAgQIECBAgIDQzh4gQIAAAQIECBAgQIAAAQIECBAgkJiA0C6xglgOAQIECBAgQIAAAQIECBAgQIAAAaGdPUCAAAECBAgQIECAAAECBAgQIEAgMQGhXWIFsRwCBAgQIECAAAECBAgQIECAAAECQjt7gAABAgQIECBAgAABAgQIECBAgEBiAkK7xApiOQQIECBAgAABAgQIECBAgAABAgSEdvYAAQIECBAgQIAAAQIECBAgQIAAgcQEhHaJFcRyCBAgQIAAAQIECBAgQIAAAQIECAjt7AECBAgQIECAAAECBAgQIECAAAECiQkI7RIriOUQIECAAAECBAgQIECAAAECBAgQENrZAwQIECBAgAABAgQIECBAgAABAgQSExDaJVYQyyFAgAABAgQIECBAgAABAgQIECAgtLMHCBAgQIAAAQIECBAgQIAAAQIECCQmILRLrCCWQ4AAAQIECBAgQIAAAQIECBAgQEBoZw8QIECAAAECBAgQIECAAAECBAgQSExAaJdYQSyHAAECBAgQIECAAAECBAgQIECAgNDOHiBAgAABAgQIECBAgAABAgQIECCQmIDQLrGCWA4BAgQIECBAgAABAgQIECBAgAABoZ09QIAAAQIECBAgQIAAAQIECBAgQCAxAaFdYgWxHAIECBAgQIAAAQIECBAgQIAAAQJCO3uAAAECBAgQIECAAAECBAgQIECAQGICQrvECmI5BAgQIECAAAECBAgQIECAAAECBIR29gABAgQIECBAgAABAgQIECBAgACBxASEdokVxHIIECBAgAABAgQIECBAgAABAgQICO3sAQIECBAgQIAAAQIECBAgQIAAAQKJCQjtEiuI5RAgQIAAAQIECBAgQIAAAQIECBAQ2tkDBAgQIECAAAECBAgQIECAAAECBBITENolVhDLIUCAAAECBAgQIECAAAECBAgQICC0swcIECBAgAABAgQIECBAgAABAgQIJCYgtEusIJZDgAABAgQIECBAgAABAgQIECBAQGhnDxAgQIAAAQIECBAgQIAAAQIECBBITEBol1hBLIcAAQIECBAgQIAAAQIECBAgQICA0M4eIECAAAECBAgQIECAAAECBAgQIJCYgNAusYJYDgECBAgQIECAAAECBAgQIECAAAGhnT1AgAABAgQIECBAgAABAgQIECBAIDEBoV1iBbEcAgQIECBAgAABAgQIECBAgAABAkI7e4AAAQIECBAgQIAAAQIECBAgQIBAYgJCu8QKYjkECBAgQIAAAQIECBAgQIAAAQIEhHb2AAECBAgQIECAAAECBAgQIECAAIHEBIR2iRXEcggQIECAAAECBAgQIECAAAECBAgI7ewBAgQIECBAgAABAgQIECBAgAABAokJCO0SK4jlECBAgAABAgQIECBAgAABAgQIEBDa2QMECBAgQIAAAQIECBAgQIAAAQIEEhMQ2iVWEMshQIAAAQIECBAgQIAAAQIECBAgILSzBwgQIECAAAECBAgQIECAAAECBAgkJiC0S6wglkOAAAECBAgQIECAAAECBAgQIEBAaGcPECBAgAABAgQIECBAgAABAgQIEEhMQGiXWEEshwABAgQIECBAgAABAgQIECBAgIDQzh4gQIAAAQIECBAgQIAAAQIECBAgkJiA0C6xglgOAQIECBAgQIAAAQIECBAgQIAAAaGdPUCAAAECBAgQIECAAAECBAgQIEAgMQGhXWIFsRwCBAgQIECAAAECBAgQIECAAAECQjt7gAABAgQIECBAgAABAgQIECBAgEBiAkK7xApiOQQIECBAgAABAgQIECBAgAABAgSEdvYAAQIECBAgQIAAAQIECBAgQIAAgcQEhHaJFcRyCBAgQIAAAQIECBAgQIAAAQIECAjt7AECBAgQIECAAAECBAgQIECAAAECiQkI7RIriOUQIECAAAECBAgQIECAAAECBAgQENrZAwQIECBAgAABAgQIECBAgAABAgQSExDaJVYQyyFAgAABAgQIECBAgAABAgQIECAgtLMHCBAgQIAAAQIECBAgQIAAAQIECCQmILRLrCCWQ4AAAQIECBAgQIAAAQIECBAgQEBoZw8QIECAAAECBAgQIECAAAECBAgQSExAaJdYQSyHAAECBAgQIECAAAECBAgQIECAgNDOHiBAgAABAgQIECBAgAABAgQIECCQmIDQLrGCWA4BAgQIECBAgAABAgQIECBAgAABoZ09QIAAAQIECBAgQIAAAQIECBAgQCAxAaFdYgWxHAIECBAgQIAAAQIECBAgQIAAAQJCO3uAAAECBAgQIECAAAECBAgQIECAQGICQrvECmI5BAgQIECAAAECBAgQIECAAAECBIR29gABAgQIECBAgAABAgQIECBAgACBxASEdokVxHIIECBAgAABAgQIECBAgAABAgQICO3sAQIECBAgQIAAAQIECBAgQIAAAQKJCXQytDs8Iu4YPv9LI+LMiNgcEbMiYkVEvCEi6v98JKrRxjgxIq4cPuA9EfGVcZyz17+lbg2JlaXp5dTb3RgR2Xn9PCJeOWzw9oio//NWTFupS/1rz42I84cnOicizmuhLk2fuBeOK1DGe2W0+tX/+RERcecYq6m99p6IWBgRDzS858fbn+OeqBcQIECAAAECBAgQIECAAIFeFOhUaLdTRLwtIr5RF+bcEhF3R8SnI+Ky4S/zWeiU/YwUuo02xpMR8f6I+OTwsfXjNdasFmbdO/wvsmOy4LBbf94VETcNn0O9XRaUZL5ZmJKFN3PrgrT6cy2jLtl4tXVk/7/mn/3/bPzvD4eIn4mIvxwOFbvVu1vWXcZ7JQtiR6rf7Lr9lL2fxqpr/Rj1+3C0fdstvtZJgAABAgQIECBAgAABAgTaLtCp0K7xRGoB0//bENplYdNDTVwpl41XG+O7daHdiyPiCxHxqeEQcDTALEyoBX3dHNrVn199KFIf2mVOe40S2pVdl9FCnCz8GStMbftGn+ATFHmv1MLXWv2m1YV22fsoe699qIkwdrRAfqxQeYKXzekTIECAAAECBAgQIECAwEQWqCK0y4Kd+mCt/lbO2q2VWeiU/WS3WY50K2vjGPW3AtZu1xtrjF4L7bJQ7KKIuGL46rraP59Wd8vxgRGRmWSeWfDy+Yj4SF24WaQuuw3f4vyTult0GwPFk3rgduRu/G/FeO+V7GrXbO/cPhyW179vauebvb/q61e7Hb12y+sjY4xRuz12pNvWG/dtN/paMwECBAgQIECAAAECBAgQaItAp0O7LCyrD4sar8DKwoANdbfNZrfTZrd2/s+621gbx6gP4DKkj0XE30XEM8NXd402Rq9caVcLPbOAs/ZsscbbY/cYDmRqVzv954j4Zl1gV0ZdMvvGgCj7s155fmBb3oBtHrTZ90q2jOw21yz0fdNwAFdbWmP96q+My+r958Pvz+wq19HGqO2D+is+R9q3beYwPAECBAgQIECAAAECBAgQ6B6BToZ2jVfrZEqNV7zV//NIt7qONEbjbXf1/zxSiDTSvN1Tsd9d6Ui3Jzbeotr4z423IJdRl/pV1YLXLEBs5Xbnbq1Bqutu9b0y0l4aqX71gXB27vX/PNbtsvUBX3ZlZrO31abqa10ECBAgQIAAAQIECBAgQKCtAp0K7UZ71lljqFZ7/lp2ZV32DK1aI4WsYUTtSp7GZgb14USGVbtNtNbkon6M2vPreuH22NGeE9d4y2G9z3+LiJdExN7DzT+yJh4jNRJotS7ZuP8w3LhgpGeftXUTG/z3BEZ7v432Xrl/eB98KyJeP3xb+mjPmqt/RmL9PqntpfoxsoYT2dhZx9jaeLX3dq35jPIRIECAAAECBAgQIECAAAECIwh0KrTLQrIVEfGGujXUnl9X/zy6S4efe5bd4lprSFG7Pe+SiPjHUcaoPTcrG7727Kz6q4Qab/HrhdCu/lmANdaaX+0Zc5n3jcO3qGZdP2vPJcv+fXabchZwLi1YlzMjIgvtrhxeRM2/9tyz+m1Xe96gN2N7BcZ6vzW+V7JmMPXPQ6w90y57/9VqWlttVr/aM/Cy5yVmP/V/VnumYm2M7Db1rBP02+v2YXZM7c8a922vNIVpb3WNToAAAQIECBAgQIAAAQITQqBTod2EwHSSBAgQIECAAAECBAgQIECAAAECBMoQENqVoWgMAgQIECBAgAABAgQIECBAgAABAiUKCO1KxDQUAQIECBAgQIAAAQIECBAgQIAAgTIEhHZlKBqDAAECBAgQIECAAAECBAgQIECAQIkCXRXavfGEE741tGXLjtn5P7Np04wf3XBD9sD9pH4+0t/f9+jDD38iqUVNoMX84qmndt3/9a//1BcuvLCxiULlCn/yJ3902a9/vXmvyhcyQRfw+OM//YM771yzywQ9fadNgAABAgQIECBAgAABAl0m0DWh3ZzTT19y17XXLpr2gVNj080D8as774g5ixYdeNvSpWtSMj9i3vzHfzL47PSZR7wlpWVNmLWsuujC2GHy5K2bnn56Ukon3d9/Wt+yZZcOfOTPD4ipU7blzn46KPDQhqfj8q+sjYUL+wZWrLh5fgenNhUBAgQIECBAgAABAgQIEMgl0DWh3dTZs5+dcsGSya9414JY89KdYtL222897MMfOiil0O6U009fctOtt/afdfeapAKjXDujCw+6/txzY/XffC5e++Y3//z7t98+LaVTmD/v4MfnHL7D9E+cfUhKy5owa9l91mWx+Zktcdzxcy+45JJrz5kwJ+5ECRAgQIAAAQIECBAgQKBrBboitDt44cKV/7o15u31latj3dHzY+sDD8Szg89tffP7Tk4qtNtj1qxnjzrvvMmvO/a/du2G6OaFnz3lFfH6+fNjy9NPJxXanX76f1+y+tZb+tfefaIwt4INtvjcO+Kii9fE3MOmD+4x+w8/K7SroAimJECAAAECBAgQIECAAIGWBZIP7Y7u7++7Ydmygdf+aH08+8jGWPf2ebHnioH48UdOSiq0e/fChSs3DD535IlXXjm55So4oLDA8nceE0+vXx+Hf/KT8dDllycV2s2e9Zpnl5x34OQFx+5d+DwN0LrATlM+H2ecemjc84ONQrvW+RxBgAABAgQIECBAgAABAhUJJB/azZw///HNR8yZPv3jn4j7Zu4eU/bcJ7a7YiCefOOMZEK7rPnE55ctG/j4fT+IaTNnVlTKiTvt+lWr4pJ3HhPv/+pX46lf/zqp0G7hwncMDA1umHPNle8Q5lawRee982uxbv0z8cjq+XHMB+4U2lVQA1MSIECAAAECBAgQIECAQD6BpEO7rPnEmtWr+/e9d+2kH//l4vjZ31wUr1r/m21nmlJolzWf2Pmww6bPX7QoXxUcVUjggn33jV1n7hVv+9KX419vuTmZ0K7WfGL9fafE3jNfUegcHdy6wM2rHokstBv46rui75AXC+1aJ3QEAQIECBAgQIAAAQIECFQokHRo19h8YtfTzojBjy1JKrTTfKLC3RsRWfOJ2y/+fHx07Y+2LSSl0E7ziWr3RtZ8Yp+9psfAlw7YthBX2lVbD7MTIECAAAECBAgQIECAQGsCyYZ2WfOJDc9tOXL3q//35FrziZd9+5EXzi6VK+00n2htw5X96qz5xPxTT439zzgzqdBO84myK93aeLXmE79Ze9wLBwrtWjP0agIECBAgQIAAAQIECBCoViDJ0G605hP/cWhfUqHduxcuHNgwODjnxCu/4nllFezjbc0nHnww3nvr6hdmT+VKO80nKtgQdVPWmk8sOeM1QrtqS2F2AgQIECBAgAABAgQIEMgpkGRoV9984od77R4v3+v55hP1P1Vfaaf5RM4dV9Jh9c0nph7y5qRCO80nSipyzmHqm0/UD+FKu5ygDiNAgAABAgQIECBAgACBSgSSC+2Gm0/8xb73rt2usflESqHdtuYThx82ff7Zmk9UsXPrm0/Uz1/1lXaaT1SxG347Z2PzCaFdtfUwOwECBAgQIECAAAECBAjkF0gutBur+UQqoZ3mE/k3XBlHNjafSCm003yijArnH6Ox+YTQLr+lIwkQIECAAAECBAgQIECgWoGkQrvnm08MHbn71deM2HwildBO84lqN21j84lUQjvNJ6rdFyM1nxDaVVsTsxMgQIAAAQIECBAgQIBAfoFkQrtmmk+kENppPpF/s5Vx5EjNJ1IJ7TSfKKPC+ccYqfmE0C6/pyMJECBAgAABAgQIECBAoFqBZEK7ZppPVB3aaT5R7Wb9bfOJq2LqIYeMuJiqnmmn+US1e2O05hNCu2rrYnYCBAgQIECAAAECBAgQyC+QRGg33Hyif997104aq/lE1aHdEfPnP77zYZpP5N9uxY4crflE/ahVhHaaTxSra9Gjx2o+IbQrqut4AgQIECBAgAABAgQIEKhKIInQrtnmE1WGdppPVLVFn593rOYTVYd2mk9UuzfGaj4htKu2NmYnQIAAAQIECBAgQIAAgfwClYd225pPbBk6cverxm8+UWVop/lE/k1WxpFjNZ+oMrTTfKKM6uYfY7zmE0K7/LaOJECAAAECBAgQIECAAIFqBSoN7VptPlFVaKf5RLWbdLzmE1WGdppPVLs3xms+IbSrtj5mJ0CAAAECBAgQIECAAIH8ApWGdq02n6gitNN8Iv/mKuPIZppPVBXaaT5RRoXzj9FM8wmhXX5fRxIgQIAAAQIECBAgQIBAtQKVhXZ5mk9UEdppPlHtBm2m+UQVoZ3mE9Xui2abTwjtqq2T2QkQIECAAAECBAgQIEAgv0BloV2e5hOdDu00n8i/sco48vpzz4nbL744Prr2R00P16nusfPnH/z4nMN2mP6Jsw9pem1eWJ5As80nhHblmRuJAAECBAgQIECAAAECBDorUElod/DChQMbtgzNabX5RKdDO80nOrsZG2drtvlE/XGdCO00n6h2X2TNJz538ZrYvPa4lhZyzAfuHNxj9h9+9pJLrj2npQO9mAABAgQIECBAgAABAgQIVCDQ8dCuSPOJToZ2mk9UsBvrpmyl+USnQzvNJ6rdGztO+XyceeqhseSM17S0EKFdS1xeTIAAAQIECBAgQIAAAQIVC3Q8tCvSfKJTod1Z/f19Fy5bNvDx+34Q02bOrLhEE2/6VptPdDK0e775xMY511x59OSJV5nqz7jV5hP1KxbaVV8/KyBAgAABAgQIECBAgACB5gU6GtoVbT7RqdBO84nmN1A7XnnBvvvErjNnxtu+9OWWh2/n7bGaT7RcjlIPyNN8QmhXagkMRoAAAQIECBAgQIAAAQIdFOhoaFe0+UQnQrvnm0+s7j/r7rsndbAOphoWyNN8oh6vnaGd5hPVbtM8zSeEdtXWzOwECBAgQIAAAQIECBAgkF+gY6FdGc0nOhHaaT6RfzOVcWSe5hOdCO00nyijuvnHyNt8QmiX39yRBAgQIECAAAECBAgQIFCtQEdCu7KaT7Q7tNN8otrNmLf5RCdCO80nqt0beZtPCO2qrZvZCRAgQIAAAQIECBAgQCC/QEdCu7KaT7QztNN8Iv8mKuPIWvOJD3z1qphyyCG5h2zH7bGaT+QuRykHFmk+IbQrpQQGIUCAAAECBAgQIECAAIEKBNoe2pXZfKKdoZ3mExXsvropizSfqF952aGd5hPV7ouizSeEdtXWz+wECBAgQIAAAQIECBAgkF+g7aFdmc0n2hXafeD005fcoPlE/l1U8MiizSfaGdppPlGwuAUP333fy2KfmdNj4EsHFBwp4pgP3Dm4x+w//Owll1x7TuHBDECAAAECBAgQIECAAAECBNos0NbQruzmE+0K7Z5vPnH+5Ncde2ybuQ0/kkDR5hPtCu00n6h2v5bRfKL+DIR21dbT7AQIECBAgAABAgQIECDQmkDbQrt2NJ9oR2in+URrG6bsV1/yzmPilw8+GO+9dXUpQ5d5e6zmE6WUJPcgZTSfENrl5ncgAQIECBAgQIAAAQIECFQs0LbQrh3NJ8oO7TSfqHb3vdB84qqrYsqb8jefqD+LskI7zSeq3RtZ84n165+Jjavnl7YQV9qVRmkgAgQIECBAgAABAgQIEOiAQFtCu3Y1nyg7tNN8ogM7bIwpymo+UXZop/lEtfuizOYT9WcitKu2rmYnQIAAAQIECBAgQIAAgdYE2hLatav5RJmhneYTrW2Usl/9T+eeE3dcfHF8dO2PSh26jCvtNJ8otSQtD1Zm8wmhXcv8DiBAgAABAgQIECBAgACBRARKD+3a2XyizNAuaz4x97zzJ79W84lKtmKZzSfqT6BoaKf5RCXb4YVJy24+IbSrtp5mJ0CAAAECBAgQIECAAIH8AqWGdu1uPlFWaKf5RP4NU8aRZTefKDO003yijArnH6Ps5hNCu/y1cCQBAgQIECBAgAABAgQIVCtQamjX7uYTZYR2mk9Uu+Ha0XyirNBO84lq90Y7mk8I7aqtqdkJECBAgAABAgQIECBAIL9AaaFdJ5pPlBHaaT6Rf7OUcWQ7mk+UEdppPlFGdfOP0a7mE0K7/DVxJAECBAgQIECAAAECBAhUK1BaaDd11uxnp3xmyeRXvGtBrHnpTrHraWfE4MeWtO3snnzjjK1vft/JB922dOmaZifRfKJZqfa8rl3NJ8oI7TSfaE/Nmx21Xc0nhHbNVsDrCBAgQIAAAQIECBAgQCA1gVJCu99pPvH2+bF13QPxsm8/0tZzzRPaaT7R1pKMO/i25hOnnRb7f/SMcV+b9wV5GlFoPpFXu5zj2tl8QmhXTo2MQoAAAQIECBAgQIAAAQKdFygc2nWy+UQ9T6uh3bbmE889N+fEK66c3HlmM7az+US9bp7QTvOJavdnO5tP9Ghod2JEvCUizoyIzXXnuFNEXBQRV0TEneNU9Zzhf39+w+tmRcSnIuJDEfHzUcZ4ZUR8JSLeHhGX1q0jO3ZFRLwhIm6MiK3GdGgAACAASURBVGydo41R7aYzezsEiuypbD21fZXtycb928y+zMbI9tyVwyd3RMM4h0fESSO8b9phYUwCZQiU8Z7I3jufj4iPRMQDDYtq9j0x1vsqe98/NPyZUMY5G4MAAQIECBBoECgc2nWy+UTe0E7ziWr3fbubTxQJ7TSfqHZvtLv5RI+FdrUvcPcOn9cnG0K77IvVsRFx8RihXS1Y+z8jhHZZ6PfpiHhZRPzlGIHb/Ii4e/jfZ1/Ybhme710RcdPwmrK1ZD9ZuOentwXK2FPZfskCtQ0jhM7N7stsjL0iojGIzvSz985nIuKXEdH4vunt6ji7bhUo4z2R/fd5v4h4evgvdOpDu2bfE2O9r7LQ78MRcZ3/1nfrNrNuAgQIEOgGgUKhXaebT+QN7TSfqHYrtrv5RN7QTvOJavdFJ5pP9FhoVzudLCR5f0P4UPuzByPih01caZd92ZrbEHBkX85eEhGvioi/a+IquVqYctkoV3A0jl/thjN7uwXK2FP1IXBtvc3sy2wvfmyMfZuNm4Xdr4+I/9kQdrfbxfgEigjkfU/U5hztv9PNvCfGel/VQr9vRcRLhXZFSuxYAgQIECAwtkCh0K7TzSfyhHaaT1T7FuhE84m8oZ3mE9Xujd32vSz2nTk9Br50QEcWcswH7hzcY/YffvaSS66t3cbXkXnbMEljaFf/pezg4auVsivhsltlbx/+MtV462JjwFIb87MR8efD4ce0utuqnhweJ7uK6f7h/79LRCwcIbBr5TbdNvAYsiKBInuqdjtsY0Ax0r6cHRHZ67Iwr7ZHz42It0XEzhHxFw23Z9fWlQXR2d4W2lW0QUybSyDve6J2O+xIod1I74ks9M5+sv/G1x7BkP3/U0Z5X9XWlR2zh9AuV20dRIAAAQIEmhLIHdpV0XwiT2in+URT+6BtL+pE84k8oZ3mE20reVMDd6r5RP1ieji0q/9Sl33Zym4xzEKQ2pUQ2TPu3jQc4tVI6gOW2uuyW2Kfabhiqfa67JlFtXFrY4wUzo31DKam9oYXda1AGXuqfi+PtS9rt1//54j45rBY9jzFDw7v/dotfdfUXZX6YqFd1+6tibzwvO+J2q2wjaFd/V/61L8nMuPs8QjfGL4KOwu3dxt+Tmnj+yr7PMh+sscfZO97od1E3qHOnQABAgTaLpArtKuq+USroZ3mE23fP2NO0KnmE3lCu1mzXvPs0vMOnLzg2L2rRZqgs3eq+cQECO1qX6qy5g/1P+8Z/kI12gP86wOW+oeM18a4p+4quvGeaVT7wtZss4AJuut7/rTL2FONAXStqcRI+7L+AfhZwFd/FV0tmPjN8FV59fiapPT8VuypE8z7nqghNIZ22XjnNQjV3hPZH39huBlRFvqN9L7KmhRlV7vOaxgju9p1pOdJ9lQxnAwBAgQIEKhCIFdoV9984r6Zu8eUPfeJ7a4Y6Oj6x+see+aiRfMuWrp05cfv+0FMmzmzo2szWcRvm09cHVPelF3k05mfZrrHaj7RmVqMNsu25hMPPhMbb836GXTup4evtKtHHOlKu+yZQ9mzvOq/UI30/LFsnMZnGNVel/27rOFEdttt1jAgu3ov61xb+0KZ/Xl2lcZIz7frXJHNVKVA3j1V3yl2pOd3jbQva8+5y/7WJdtzjzTsv5EaoTQGEFVamZtAswJ53xOjXWlXP2/9eyL78+y/4dn7MXsvZw1ban9W++/6SO8rV9o1W0mvI0CAAAECOQVaDu1+v/nE5+JV67Pvbp39GS+003yis/VonK2TzSfq5x4vtNN8otp90enmE/VnO8FCu9oz7bJwLfsSNt4z7WpU9aFd9rywT0VEdmVF9pPdClUL/u4Y/rPa1RW122LfXmd+aUSc6aH/1b7nOjh7M6HdaHtqtGfajbQvs6t8suA421vZlaafj4js+V215y5me3CkvSe06+BmMFVpAs2EdqO9J7LgbqyGQfXvieyZdtltr9l/52vPtMveY9kttNmfjfa+EtqVVmoDESBAgACBkQVaDu1+t/nEjrHraWfG4MeWdNx3rNBuW/OJ1av/4qzv3b1dxxdmwvinc86JO75wcXx07Y86rjFeaKf5RMdL8jsTdrr5RI+GdtUW0ewECBAgQIAAAQIECBAg0BGBlkK7rPnEv26Nvr2+cnWse/u82LpuXbzs29ldKZ3/GSu003yi8/Won7HTzSfq5x4rtNN8otp9UUXzCaFdtTU3OwECBAgQIECAAAECBAjkF2g6tEuh+UT9aY4W2m1rPjH43JwTr7xycn4WR+YVqKL5RLOhneYTeataznFVNJ8Q2pVTO6MQIECAAAECBAgQIECAQOcFmg7tUmg+MV5op/lE5zdQ/YzrVq2K5e88Jj5wVWebTzQT2mk+Ue3eqKr5hNCu2rqbnQABAgQIECBAgAABAgTyCzQV2k09/KiNv/j+d3Z78cFvjP94+KHY8vjjsctDg/lnLeHIka60m7bLLluGdthx0pTdsmdT++m0wMbv/HPMOvDAOObK7JnF1fyMdHvsyX/02iv+8f/+4D2HHLxL7LTT9tUsbALP+tQv/iPuue9nMfDVd0XfIdkzrav5aVcjihNOOOFbW7Zs2bGaszLrpk2bZtxwww2zypZY8O533/afJk3aUva4xiPQDQI7vexlm7562WX/tcy19ve/v+/hh3/8iTLHNBaBbhF46qmnd3396/f51IUXXn5lt6zZOgkQIEAgDYGmQrvoO27VlMfWvnXSy6fGs088GoNDW2PqXRsrPYORQruddt55aNfZs5s7p0pX35uTr//ud+Oka6+NV+23f2UnOFJo92cLpp9/3Xd+85d7vvpl9kYFlfn3Xw7GhkefjF/d9+4KZv/tlO0I7U4//fQl3/jG/z37tNNOsrcqqO7AwG1xxx3fiUWLFh24dOnSNWUt4d0LF6686957+173396trmWhGqdrBL5z+T/G0z/+cQwNDZW6/+fPO/jx5wZ/Ov3II17TNRYWSqAsgWUXfTcmT95h69NP/2pSWWMahwABAgQmhkBzv5D1Hbcqpu361jjhjHj5khNj83bbx7QVqyoVGim023Hq1C0HLVk6aYcpUypd20Sd/NYTFsZ7vvGNJEO7dY9sOvuKRTM857CCzXnhN7eLK/5pQ/zknxdUMHt7Q7vZs2c9u2TJ2ZMXLHhHpec2USffaac9Yvvtt9/6oQ99+KCyQruP9Pf3fX7ZsoGP3/eDmDZz5kSldd4TVGD9qlWRPZt256lTt276938vLVzQCGqCbiinvU0ga8T1139zdxz25r1/vvr2+6dhIUCAAAECrQgI7VrR8toxBYR2NshIAr0a2i1cuHDlli2bj/zf//tSYXAFW3/+/OPjgQceiueeG9x68smnlBbaHTF//o93PvSwGfMXLargrExJoFqBC2btG9Nf/ep4/OGHh5766U+3K2s1s2e95tkl5x04ecGxe5c1pHEIdI1A1ojr2Pn7xs+eHhLadU3VLJQAAQLpCAjt0qlF169EaNf1JWzLCfRiaNff39+3bNmygfXrvx17771nW9wMOrrAzTffHvPmHR8DN10WJ528uLTQ7pTTT19y06239p9195rSrjBSRwLdInD9uefG7Rd/Pt5/661x9YIFpYV2Cxces3Jo8OEjr7nyHf6Co1s2g3WWJrCtEdf6Z+ILn9wv/vryfxPalSZrIAIECEwcAaHdxKl1289UaNd24q6coBdDu/nz5z0+Z85B0z/xiTO6sibdvujddz849tlnrxi46W9ixmuOLi2022P27GeP+vSnJ7/u2FKfv9/t3NY/QQTOnvKKmH/qqbH7H/9xaaFd1nxi2bLLBtbdd0rsM/MVE0TSaRJ4XuDmVY9EFtqt/Oq7YvOvnxLa2RgECBAgkEtAaJeLzUEjCQjt7IuRBHottMuaT6xefUv/2rWrXY1VwZZfvPiv4qKL/j5+88xd22YvK7TLmk9sGBw88sQrv+JqoArqaspqBZb/l3fG0+vWxXtX3xa/+reflhbaZc0n5hy2w/RPLDqk2hM0O4EKBHbb97LYd+b0GPjSAXHdLT8W2lVQA1MSIECgFwSEdr1QxUTOQWiXSCESW0avhXaaT1S7wbLmE2d89H2x5K9OLS20O6u/v+9CzSeqLazZKxOoNZ94/1eviqmHHFJaaKf5RGUlNXECAlnzic9dvCY2rz1u22qEdgkUxRIIECDQpQJCuy4tXIrLFtqlWJXq19RLoZ3mE9Xup+w5duvWPRyPbLj2hYWUcaXdEfPnP77zoYdN13yi2vqavRqBrPnErnvtFW/70pe3LaCsK+00n6imnmZNQyBrPnHmqW+OJWfsKrRLoyRWQYAAga4VENp1benSW7jQLr2apLCiXgntNJ+odjfVN5/o6zugtNBO84lq62r2agVqzSc+uvZHLyykjNBu4cJ3DAwNbpij+US19TV7NQLbmk88+ExsvHX+CwtwpV01tTArAQIEekFAaNcLVUzkHIR2iRQisWX0Smin+US1G6u++UT9SopeabfHrFnPHnXeeZpPVFtes1ckUGs+sf8ZZ5YW2tWaT6y/75TYW/OJiipr2qoEas0nBr76rug75MVCu6oKYV4CBAj0kIDQroeKWfWpCO2qrkCa8/dCaDfcfOIv1q5dvV2ayr29qsbmE2WFdu9euHBgw+Bzc0688krNJ3p7Czm7EQSWv/OYeHr9+m3NJ+p/il5pt635xOE7TP/E2ZpP2HgTT6C++UT92bvSbuLtBWdMgACBsgSEdmVJGieEdjbBSAK9ENppPlHt3m5sPlFGaKf5RLU1NXu1Ao3NJ8oK7TSfqLauZq9WoLH5hNCu2nqYnQABAr0iILTrlUomcB5CuwSKkOASuj20y5pPDA1tPvKaay51NVYF+ytrPrF+/cOx8eHfNp8oI7Tb1nzisMOmzz97UQVnZUoC1Qo0Np8oK7SbNes1zy4978DJC47du9oTNDuBCgSebz5xaCw54zW/N7sr7SooiCkJECDQIwJCux4pZAqnIbRLoQrpraGbQzvNJ6rdT6M1nyga2n3g9NOX3HDrrf1n3b1mUrVnaHYCnRcYqflEGaHd880nNs655sqj/QVH58tqxooFRmo+Ub8koV3FBTI9AQIEulhAaNfFxUtt6UK71CqSxnq6ObTTfKLaPTRa84miod3zzSfOn/y6Y4+t9gTNTqACgZGaTxQN7fr7T+tbtuzSAc0nKiioKSsXGK35hNCu8tJYAAECBHpCQGjXE2VM4ySEdmnUIbVVdGtoN9x8on/t2tWuxqpgUy1e/Jm46KJ/iN88c9eYs7faPfb55hODc0688iuuBqqgrqasVmC05hNFQ7v58w9+fM5hmk9UW12zVyWQNZ+YNXN6rPzSAaMuwZV2lVRnp4i4KCJOq5v9nohYGBEPNKyoldfWDn1lRHwlIt4eEZdGRNaGe/Pwv5wVEZ+KiA9FxM8rOXuTEiDQMwJCu54pZfUnIrSrvgYprqBbQ7vnm08smrxgwdEpsvb8mrY1nzjjfbHkM6eWFtppPtHz28YJjiFQaz7xga9eFVMOGb2za6vdY7PmE7fdekv/D+8+0V9w2IETTmDxubfH5y7+fmxee9yY5y60S2JrZEHa+yPik3Xh2mgLG++1WWD3heFgbqQA8NMR8bKI+EuhXRK1twgCXS0gtOvq8qW1eKFdWvVIZTXdGNotXLhwYGho8xzNJ6rZReM1n6hfVStX2mk+UU09zZqGwAX77hu7ztwr3valL4+5oFZDu9mzXvPsEs0n0iiyVXRcYKzmE/WLEdp1vDQjTZhdCffNEa6yy/PawyNij+Er7RqPPzEiXhIRr4qIvxPaJVF7iyDQ1QJCu64uX1qLF9qlVY9UVtNtoZ3mE9XunGaaT+QJ7Z5vPrG6/6y773Y1ULUlNnsFAtefe07cfvHF8dG1Pxp39lZCO80nxuX0gh4WGK/5hNAuqeJnV84dM3y7bO1W2NuHQ7dzhld6/vD/1r82+/+fj4iPRMSTw6/PXpcFdlkw9+cR8YaIeM/wv6tdoffZ4X8ntEtqG1gMge4UENp1Z92SXLXQLsmyVL6obgvtNJ+odss003wiT2iXNZ+Ye975k1+r+US1BTZ7JQLjNZ+oX1SzoZ3mE5WU0qSJCDTTfEJol0ixnl9G41V22e2tn4mIKyLiTcNhXm3Bja/NrqqbGxEPRcSGiLgzIrKg79XD4754+FbZz0XE+4ZviX0mIj7mSruk9oDFEOhaAaFd15YuvYUL7dKrSQor6qbQTvOJandMs80nWg3ttjWfeO65OSdecaXmE9WW2OwVCGxrPvHgg/HeW1c3NXuzoZ3mE01xelGPCjTTfEJol0zxR3s+3UjNIkZ7bXbL614RUbsaL/vnWoCXnWgW4m0fEec2nPVojS+SwbEQAgTSFxDapV+jrlmh0K5rStXRhXZTaKf5REe3xu9N1mzziVZCO80nqq2p2asVeKH5xFVXxZQ3jd58on6VzYR2mk9UW1ezVyvQbPMJoV21daqbPQvYsp+s02vtp3al3bci4vUNYVzja2tX2mV/fsvwlXa1P8tCvNpY9U0nsltwXWmXzBawEALdLSC06+76JbV6oV1S5UhmMd0S2mk+Ue2WaaX5RCuhneYT1dbV7NUKXLDvPrHrzJnjNp9oNbTTfKLaupq9WoFmm08I7aqtU93s2VVwtbAt++PaM+2yW2Nrt7pmf54FcI2vrb8arxbmZa/LjsvCwCuH5zli+M9q0wrtkim/hRDofgGhXffXMJkzENolU4qkFtINod2iRYvmLV26dOX69d+OvffeMym/ibCYgYHbY/7842Pgpsuir++Alk55rO6x25pPrF7df9b3NJ9oCdWLe0Lgn849J+5osvlEK6Gd5hM9sT2cRE6BVppPCO1yIjuMAAECBH5HQGhnQ5QmILQrjbKnBuqG0E7ziWq33G67HRyzZu0VK2/8m5YXMlZop/lEy5wO6CGBVppPNBvaaT7RQxvEqbQs8ELziaveFX1vynoPNP9z3S0/jr++/N9+vvr2+6c1f5RXEiBAgACBCKGdXVCagNCuNMqeGij10E7ziWq3W9Z84nMX/UNsfuauXAsZLbTTfCIXp4N6ROCSdx4Tv2yh+USzoZ3mEz2yQZxGLoFWm0/UTyK0y0XuIAIECBAIoZ1NUKKA0K5EzB4aKvXQbvbsfZ9dsmTx5AULju4h9e45lR133CPOPPN9seQzp+Za9Eih3ZmLFs27aOnSlR+/7wcxbebMXOM6iEC3Cvy2+cTVMeVNb2r5NEZrRLGt+cTqW/p/+L0TJ7U8qAMIdLlAnuYTQrsuL7rlEyBAIBEBV9olUoheWIbQrheqWP45pBzavXa/2b/6tyeffMl+++1b/okbcVyBe+75YWy//eT4t5/cNO5rR3vBSKHdtF122TK0w46Tpuy2W+5xHUigWwU2fuefY9aBB8YxV9Y3Smz+bEYK7Ra9d8YBF3/t53fvucdLY9ors+er+yEwsQRuu/PH0f/BI2LJGa/JdeJ5r7Q74YQTvrVly5Ydc03qIAJdLrBp06YZN9xwQ9YMxA+BCS0gtJvQ5S/35IV25Xr2ymgph3YHvmH2pknbveilO+4wuVe4u+o81tx7f/zRgrlxxeWfzr3ukUK7nXbeeWjX2bOb+3zLPbMDCaQpsP67342Trr02XrXf/rkWOHpo9+TdB+4/PdeYDiLQzQLPPrc1vvP9R2PowRNyn0ae0C57fMc3vvF/zz7ttJN8nuWWd2C3CgwM3BZ33PGdWLRo0YFLly5d063nYd0EyhBo7kOg77hVMW3Xt8YJZ8TLl5wYm7fbPqatWFXG/LnHePKNM7a++X0nH3Rb3Zt4x6lTtxy0ZOmkHaZMyT2uA/MLCO3y2/XykSmHdocfsv+Tpxx/1Cv73vKGXi5Bsuf2pv+yOE499Y/i/E//We41jhTa+SzIzenAHhAo+lk8Wmj35et+9r01l+7Z3O+NPeDoFAjUBNY+MTnefubaeG59Z0O72bNnPbtkydmTFyx4h2IQmHACO+20R2y//fZbP/ShDx8ktJtw5XfCDQLN/fIltLNxmhAo+kWhiSnGfcm/3nJzPHT55T///u23v9Cd688WTD9/3SObzr5i0QyXU40rWP4LhHblm/bKiEK7Xqmk80hJoOhnsdAupWpaSwoCVYR2CxcuXDk0tPnIa6651O+uKWwCa+iowPz5x8cDDzwUzz03uPXkk08R2nVU32QpCgjtUqxKl66p6BeFMk5baFeGYrljCO3K9eyl0YR2vVRN55KKQNHPYqFdKpW0jlQEOh3a9ff39y1btmxg/fpvx95775kKg3UQ6IjAzTffHvPmHR8DN10WJ528WGjXEXWTpC4gtEu9Ql20vqJfFMo4VaFdGYrljiG0K9ezl0YT2vVSNZ1LKgJFP4uFdqlU0jpSEeh0aDd//rzH58w5aPonPnFGKgTWQaBjArvvfnDss89eMXDT38RIj0Dp2EJMRCAhAaFdQsXo9qUU/aJQxvkL7cpQLHcMoV25nr00mtCul6rpXFIRKPpZLLRLpZLWkYpAJ0O7rPnE6tW39K9du3pSKudvHQQ6JbB48V/FRRf9ffzmmbu2TSm065S8eVIXENqlXqEuWl/RLwplnKrQrgzFcscQ2pXr2UujCe16qZrOJRWBop/FQrtUKmkdqQh0MrSbPXvfZ5csWTx5wYKjUzl96yDQMYGs+cQZH31fLPmrU4V2HVM3UTcICO26oUpdssaiXxTKOE2hXRmK5Y4htCvXs5dGE9r1UjWdSyoCRT+LhXapVNI6UhHoVGi3cOHCgaGhzXM0n0il8tbRSYHnm088HI9suPaFaV1p18kKmCtlAaFdytXpsrUV/aJQxukK7cpQLHcMoV25nr00mtCul6rpXFIRKPpZLLRLpZLWkYpAJ0I7zSdSqbZ1VCFQ33yir+8AoV0VRTBn0gJCu6TL012LK/pFoYyzFdqVoVjuGEK7cj17aTShXS9V07mkIlD0s1hol0olrSMVgU6EdppPpFJt66hCoL75RP38rrSrohrmTFFAaJdiVbp0TUW/KJRx2kK7MhTLHUNoV65nL40mtOulajqXVASKfhYL7VKppHWkItDu0O755hOr+teuvVXziVSKbh0dE8iaT3zuor+PzcPNJ4R2HaM3URcJCO26qFipL7XoF4Uyzk9oV4ZiuWMI7cr17KXRhHa9VE3nkopA0c9ioV0qlbSOVATaHdppPpFKpa2jCoEdd9wjzjzjt80nWgjtToyIt0TEmRGxeZy1t/Lac4bHOr9uzOzPzouIeyJiYUQ8UIWVOSeugNBu4ta+9DMv+kWhjAUJ7cpQLHcMoV25nr00mtCul6rpXFIRKPpZLLRLpZLWkYpAO0M7zSdSqbJ1VCEwb97xsX79w7Hx4d82n2gitHtlRHwlIu4dfu0nxwjtWnntrIhYERH/pyG0OzwiThoOBw+s+//jBYVVkJqzRwWEdj1a2CpOq+gXhTLWLLQrQ7HcMYR25Xr20mhCu16qpnNJRaDoZ7HQLpVKWkcqAu0K7U7+7//1in+86tr3HHLIgbHTTjumcrrWQaAjAk899XTcc88PY+Cmy6K++UQToV3tJVnI9v6IGCu0y/PaLKSbGxG1K+2yq+xuiYg7I2KniPh0RFzmaruObBOTDAsI7WyF0gSKflEoYyFCuzIUyx1DaFeuZy+NJrTrpWo6l1QEin4WC+1SqaR1pCLQrtDuT0865vxv3bzmL/fYfUZz38dSAbEOAiUI/PsvNsXGRx6LX/3yjlFHG6cRRX1ol41xUUTcPnwVXuMtrq28tjG0y26//WZdSNf4zyVoGILA2ALNfUj0Hbcqpu361jjhjHj5khNj83bbx7QVqyq1ffKNM7a++X0nH3Tb0qVragvZcerULQctWTpphylTKl3bRJ286BeFMtyEdmUoljuG0K5cz14aTWjXS9V0LqkIFP0sFtqlUknrSEWgnaHdgw89dvaXL/rw5FTO1ToIdErg8/9rVXzl/9wYP3l8ZRmhXXaranYr7Gci4oqIeNNwiFcbu/GqvLFeK7Tr1CYwT9MCQrumqbxwPIGiXxTGG7+Zfy+0a0aps68R2nXWu5tmE9p1U7WstVsEin4WC+26pdLW2SkBoV2npM0zkQTaENplfFk496mI+FBE/LzOc6RbaUd77Xi3x34sIv6uYfyJVDrnWoGA0K4C9F6dsugXhTJchHZlKJY7htCuXM9eGk1o10vVdC6pCBT9LBbapVJJ60hFQGiXSiWso5cE2hDa1a6e+1ZEvL7umXS1MK/++XdjvbYxtKv/5/qmFBpR9NKGTPxchHaJF6ibllf0i0IZ5yq0K0Ox3DGEduV69tJoQrteqqZzSUWg6Gex0C6VSlpHKgJCu1QqYR29JFByaJfRZM+0y26NzRpGNPNMu9Fe2xjaZWNn450XETdGxImusuulndgd5yK06446dcUqi35RKOMkhXZlKJY7htCuXM9eGk1o10vVdC6pCBT9LBbapVJJ60hFQGiXSiWso5cESgjteonDuRAYU0BoZ4OUJlD0i0IZCxHalaFY7hhCu3I9e2k0oV0vVdO5pCJQ9LNYaJdKJa0jFQGhXSqVsI5eEhDa9VI1nUu7BYR27RaeQOMX/aJQBpXQrgzFcscQ2pXr2UujCe16qZrOJRWBop/FQrtUKmkdqQgI7VKphHX0koDQrpeq6VzaLSC0a7fwBBq/6BeFMqiEdmUoljuG0K5cz14aTWjXS9V0LqkIFP0sFtqlUknrSEVAaJdKJayjlwSEdr1UTefSbgGhXbuFJ9D4Rb8olEEltCtDsdwxhHblevbSaEK7Xqqmc0lFoOhnsdAulUpaRyoCQrtUKmEdvSRQJLT7kxP+5LJf/+rXe3Xa4/GfPP4Hd373zl06Pa/5CAjt7IHSBIp+UShjIUK7MhTLHUNoV65nL40mtOulajqXVASKfhYL7VKppHWkIiC0S6US1tFLWewq7gAAIABJREFUAnlDu/4P9vct+9tlAx855KiYutNLO0by0FM/i8vv+f9i4dsXDKy48evzOzaxiQhEhNDONihNoOgXhTIWIrQrQ7HcMYR25Xr20mhCu16qpnNJRaDoZ7HQLpVKWkcqAkK7VCphHb0kkDe022Xq/7Nlp61bJ+3+8qkd5bjrsYfjJTvutHXh0e/6zCVfu+Kcjk5usgkvILSb8FugPICiXxTKWInQrgzFcscQ2pXr2UujCe16qZrOJRWBop/FQrtUKmkdqQgI7VKphHX0kkDe0O5lO7546A2v3r25DKNEsDseuj8Of/UeW1735iOWCO1KhDVUUwLNbfi+41bFtF3fGiecES9fcmJs3m77mLZiVVMTtOtFPzvwVVsP/cApB922dOma2hw7Tp265aAlSyftMGVKu6Y17hgCRb8olIF779VXx09v+NbPv3/77dNq4/3Zgunnr3tk09lXLJoxuYw5jNGaQCqh3VuOH4jXvenQCy655NoX/nbs8EP2f/KU4496Zd9b3tDaSXl1KQJlhHavmj5/6ymn/OlBS30WlFITg3S/QNHP4iy0u2rBgqFf/PSn29U0Fr13xgFfvu5n31tz6Z7N/d7Y/YzOgMALAmWEdn9/9YPx1Rs2/Xz17fe/8Pvpn550zPkPPvTY2V++6MN+P7XfJpxAM6HdSL/jvepFO2351h8cMelVk3fsqNlud18f+0/bZejwOX1/JbTrKL3JuvX22N/c+PUY/B+LBzetu/9F9VUU2lW7p4t+UShj9d/88IcGd9t559u+tWLFPKFdGaLFx0ghtHtw46bYZ+4/RX//CfOWLbv65tpZCe2K17fICEVDu69/49ZY/PFLBu+/f73PgiKFcGxPCRT9LL7rb/82/uOe7z/xLzffPENo11Nbw8nkFCgjtDv+w/88OGnn3W5bseLWF34/FdrlLIjDekJgvNButN/xqgrtdv3e9TG0dSj6Tz5t3rJ/vPSF7xI9UQwnkbxAc39jmtiVdk/N239ov7lzln1v+fLFQrt09ljRLwpFz2T9ypXx3Qv/evCxdet+5wu8K+2KyhY7PoXQbqRflrOzEtoVq23Ro4uGdvu/9vihOUfOW7bcZ0HRUji+hwSKfBb/YuPG+Ie5R8WfLlo0/x+WLh0Q2vXQxnAquQWKhnZfX/lYLL5w3eD96376O7+fCu1yl8SBPSAwXmg32u94WWj3nmm7Tuo0wYVPrI9jDj3yB9d/+9bXdXpu8xHoutBu08UXxCvW3PbEowMrX/gb4FoZXWlX7YYu8kWhjJVfcfTbh47q61t2VcMXeKFdGbr5x6g6tMt+WV504brBBxp+WRba5a9pWUcWCe0u+MwX47bbH3hi5crfXg3ks6CsyhinmwWKfBaPdLV6ZuH22G7eEdZeVKBoaLff0TcNHdl32LLly6/7nYsNhHZFK+P4bhYYK7Qb63e846bvWckzurafvN0Oe7zoJR9c+uA9Lzyaq5v9rb27BLoqtHtuw4Pxb3P2iUP7++fdtWzZ712WKrSrdvMV+aJQdOV3/e0X4j/uued3buepjSm0K6pb7PiqQ7v93nHT0JFzf/+XZaFdsbqWcXTe0O7BBx+NfWa9K/r7++ct81lQRimM0UMCeT+LR7taXWjXQ5vDqeQSKBLaXfC3P4zb7tn6xMqb7/u9iw2EdrnK4aAeERgttBvvd7weOX2nQaAlga4K7X75weMHd3/xpNt+WPe8svqzFdq1VPvSX5z3i0LRhYx2O4/QrqhsOcdXGdqN9cuy0K6c+hYZJW9od/wJiwYnTZpy2wqfBUX4HdujAnk/i694x9FDR82d+3tXqwvtenSjOK2mBfKGdrXn6S5adPz8pUuveeF289rEQrumS+CFPSgwWmh3/MJFg5O2G/13vB6kcEoExhXomtButOYTQrtxa9yxF+T9olB0gdntPHvsvPNt14/yBd6VdkWFix1fVWg3WvOJ+rPxTLtitS16dJ7QbrQHE/ssKFoNx/eKQJ7P4rGuVhfa9crOcB55BfKGdqM9T1dol7cSjuslgZFCu69/Y1Us/vjy32sw1kvn7VwI5BHomtButOYTvqjlKXt7jsnzRaHoSrLbeb534V8PPtrQfKJ+XKFdUeVix1cV2o33y3J2VkK7YrUtenSe0G60BxP7LChaDcf3ikCrn8VPbdwYX5x7VJzW3z/v0hFuNxfa9crOcB55BfKEdqM1n6hfgyvt8lbEcb0gMFJot99rjx86coQGY71wvs6BQBGBrgjtxmo+4YtakfKXe2yrXxTKmH205hNCuzJ0yxmjitCumV+WhXbl1LfIKK2GdmM9mNhnQZFKOLaXBFr9LB7vanWhXS/tDueSRyBPaDda8wmhXZ4KOKYXBRpDu+d/x/vREytXrvq95z/24vk7JwKtCCQf2o3XfMIXtVbK3d7XtvpFoehqxrudpza+K+2KShc7vorQrplfloV2xepaxtGthHatPJjY803LqI4xulWglc/i9Stviu9eeOHgY2NcrS6069adYN1lCbQa2o33PN3aulxpV1aFjNONAvWhXSu/43XjuVozgaICyYd24zWfENoV3QLlHd/KF4Wis47XfKJ+fKFdUe1ix3c6tGv2l2WhXbG6lnF0K6HdeM0nfBaUURFj9IJAK5/FYzWfqLdY9N4ZB3z5up99b82lezb3e2MvQDoHAsMCrYR2zTxPV2hnaxGIqA/tNJ+wIwiMLdDcL199x62Kabu+NU44I16+5MTYvN32MW3FqrbbNtN8whe1tpeh6Qla+aLQ9KCjvLCZ23lqhwrtimoXO76ToV0rvywL7YrVtYyjmw3ttj2YePHywfsfWP+iZuZ1pV0zSl7TqwLNfhY3e7V65iS069Xd4ryaEWgltGvmebpCu2bUvabXBWqh3fJLPq75RK8X2/kVFkg6tGum+YTQrvAeKG2AZr8oFJ0waz7x3Qv/etzbeYR2RaXLOb6ToV0rvywL7cqpb5FRmg3tmmk+4bOgSCUc20sCzXwWP7VxQ3xx7twxm0/UmwjtemmHOJdWBZoN7Zp9nq7QrtUKeH0vCtRCu6lTp2g+0YsFdk6lCiQb2m36/AXxiu/f9sSjAyubfhilqytK3RstD9bMF4WWBx3hgGaaT9Qf5kq7MtTzj9Gp0K7VX5aFdvlrWtaRzYR2zTafENqVVRXjdLtAM5/FrVytnnkI7bp9V1h/EYFmQ7tmn6crtCtSDcf2ikAW2v395V+PQw89RPOJXimq82ibQJKhXSvNJ3xRa9veaHngZr4otDxowwGt3M5TO1RoV1S92PGdCu1a/WVZaFesrmUcPV5ol/fBxP4Cp4zqGKNbBcb7LG62+UT9+QvtunU3WHcZAs2Edq08T7cxtHvDfrtPLmOdxiDQTQI/eujf48ab74z+/v55y5Ytu7mb1m6tBDotkGRo10rzCaFdp7fM6PON90Wh6Eqf2rgxvjj3qPjTRYvm/8PSpQPNjie0a1aqPa/rRGiX55dloV176t3KqOOFdq00n/BZ0Iq81/aywHifxa1erZ5ZCe16ecc4t/EExgvtWn2ebn1o9+9P/fKI8eb37wn0qsCvNg/NuPHmb8/q1fNzXgTKEkgutHu++cSiwU3rHmjqgeO+qJW1FYqPM94XhaIztHo7T20+oV1R+WLHtzu0y/vLstCuWF3LOHqs0C5rPrFo8fLBB5psPuGzoIyKGKMXBMb6LM5ztbrQrhd2hXMoIjBeaNfq83SLrMWxBAgQIDDxBJIL7VptPuGLWjqbtp2hXavNJ+pVhHbV7pF2h3ZFflk+/JD9nzzl+KNe2feWN1SLNEFnHyu0a7X5hM+CCbqJnPbvCYz2Wdxq84n6gV1pZ6NNZIGxQrs8z9OdyJbOnQABAgRaF0gqtMvTfMIXtdaL3q4j2hna5bmdp3aeQrt2Vby5cdsZ2hX9ZVlo11wN2/Wq0UK7PM0nfBa0q0rG7TaB0T6Lr//whwb33Hnn1devWDG/1XMS2rUq5vW9JDBWaLff0TdtObLvsP+xfPl1i3vpnJ0LAQIECKQjkExol7f5hC9q6WymdoV2eW/nEdqlsTfaGdrlaT5RryK0q3aPjBTa5W0+4bOg2lqaPR2BkT6L8zSfqD8joV069bWSzguMFtrlfZ5u58/AjAQIECDQzQLJhHZ5m0/4opbO9mtHaFdrPnFaf/+8S3N2FnKlXbV7pF2hXRm/LAvtqt0bI4V2xy9cNDhpuym3rVixYl7e1ekem1fOcb0gMNJncZGr1TMToV0v7AznkFdgpNCuyPN0867DcQQIECAwMQWSCO2KNJ8Q2qWzcdsR2g3fznPb9QW+wAvtqt0j7QjtyvplWWhX7d5oDO2KNJ/wWVBtLc2ejkDjZ/HzV6vf+8S/3DwwI+8qhXZ55RzXCwIjhXZFnqfbCybOgQABAgQ6J5BEaFek+YQvap3bLOPNVHZoV/R2ntp6hXbjVa69/74doV1ZvywL7dpb+/FGbwztijSf8FkwnrZ/P1EE6j+Ln9qwIb7YNzeKXK2euQntJsrucZ4jCTSGdkWfp0uZAAECBAi0IlB5aJc1n3j592974rGBlbn/Brh2wm6JaqX05b+27NCu6O08Qrvya5xnxLJDuzJ/WRba5aloecfUh3ZFm08I7cqri5G6W6D+s3jb1eovfenq66+5puXmE/UKQrvu3hNWX0ygMbTTfKKYp6MJECBAoDWBSkO7MppP+KLWWsHb+eoyQ7uizSfqz9OVdu2s+vhjlx3aFW0+Ub9iod349WvnK2qh3XtPemfsO2tB9Pf3z1uW89mVPgvaWSljd5NA7bP4l4/9OL530YWDj65b96Ki6xfaFRV0fDcL1Id2ZTxPt5strJ0AAQIEOi9QaWhXRvMJX9Q6v2lGm7Gs0K6M5hNCu3T2RZmhXdm/LAvtqt0ntdDugfs3Fm4+4bOg2lqaPR2B2mfxjWedNTS3r2/ZVcuXLy66OqFdUUHHd7NALbS7f+Cdsc/cf4r+/hPmLVt29c3dfE7WToAAAQLdI1BZaJc1n3jufywa/OW6Bwr/DXCN2+2x1W68skK7MppPCO2q3Qv1s5cV2pXVfKJ+bUK7avdJFtodeeQBcd99Gwbvv3+9z4Jqy2H2HhHIPovf8Md/HNv/5CeP/8vAwKvLOC2hXRmKxuhWgVpo90dH7zm43c67rV6x4tZCt5t3q4N1EyBAgEA1ApWFdk/N229ov7lHLvteCX8DLLSrZvM0zlpGaFdW8wmhXRp7IltFWaFdWc0nhHbp7I0stNu6dWjru999/GeX+yxIpzBW0tUC2Wfx0NBQ4eYT9QhCu67eEhZfUCAL7d525trYd+//PHj/up+W9hdMBZflcAIECBCYIAKVhHZlNp+or5Mr7ardtWWEdmU1nxDaVbsX6mcvI7Qrs/lEY2j3xtfv9cp0tCbWSr741Vtixozpz65b/+AOZZ559lkwva9vUpljGotAtwhs+NrX4vB3vOMHd3zzm68ra8210O49817W3O+NZU1sHAIJCDwzuH1c8vWfxumnH7t0+fLrCt9unsApWQIBAgQIdJFAc7989R23Kqbt+tY44Yx4+ZITY/N228e0FatynWbZzSeEdrnK0JaDioZ2ZTafENq1pcS5Bi0jtCuz+UT9Sbz7vxyR7z9kuSQcNJLAS3ae8tjlV113Upk6ux51lLqWCWqsrhLYbvLkHV68yy4fXHv55WvKWngW2v3ro89eWNZ4xiHQbQK/Gdrh5det/vGB3bZu6yVAgACB7hfoeGhXdvMJoV06m7BIaPfUxg3xxblzS72dpyaje2y1e6RoaFd284lqNcxOgAABAgQIECBAgAABAgSaE+hoaPd884nFg79cd39bngfh9tjmit6uVxUJ7cpuPlF/jkK7dlW8uXGLhHbtaD7R3Kq9igABAgQIECBAgAABAgQIVCvQ0dCuHc0n6vmEdtVupryhXTuaTwjtqt0L9bMXCe3a0XwiHRkrIUCAAAECBAgQIECAAAECowt0LLRrV/MJoV062ztvaNeO5hNCu3T2Rd7Qrl3NJ9KRsRICBAgQIECAAAECBAgQIFBxaNfO5hNCu3S2d57Qrl3NJ4R26eyLvKFdu5pPpCNjJQQIECBAgAABAgQIECBAoOLQrp3NJ4R26WzvVkO7djafENqlsy/yhHaaT6RTPyshQIAAAQIECBAgQIAAgWoE2n57bLubTwjtqtk4I83aamjXzuYTQrt09kWroZ3mE+nUzkoIECBAgAABAgQIECBAoDqBtod27W4+IbSrbvM0ztxKaNfu5hNCu3T2RauhneYT6dTOSggQIECAAAECBAgQIECgOoG2hnadaD4htKtu8xQJ7drdfEJol86+aCW003winbpZCQECBAgQIECAAAECBAhUK9C20K5TzSeEdtVuoPrZm73SblvziXvvfeJfBgZmdGL1f7Zg+vnrHtl09hWLZkzuxHzm+F2BVkI7zSfsHgIECBAgQIAAAQIECBAg8LxA20K7TjWfENqls5WbCe2e2rAhvtg3N07r75936bJlN3di9UK7TiiPPkezoZ3mE9XWyewECBAgQIAAAQIECBAgkJZAW0K7TjafENqls6GaCe2Gm0+svn7FivmdWrnQrlPSI8/TTGin+US1NTI7AQIECBAgQIAAAQIECKQn0JbQrpPNJ4R26Wyq8UK7TjafqFcR2lW7R5oJ7TSfqLZGZidAgAABAgQIECBAgACB9ARKD+063XxCaJfOphovtOtk8wmhXTr7YrzQTvOJdGplJQQIECBAgAABAgQIECCQjkCpoV0VzSeEdulsprFCu043nxDapbMvxgvtNJ9Ip1ZWQoAAAQIECBAgQIAAAQLpCJQa2lXRfEJol85mGi20q6L5hNAunX0xVmin+UQ6dbISAgQIECBAgAABAgQIEEhLoLTQrqrmE0K7dDbUaKHdtuYTL33p6uuvuaZjzSeEdunsi9FCO80n0qmRlRAgQIAAAQIECBAgQIBAegKlhXZVNZ8Q2qWzqUYK7dbfdFN896ILBx9bt+5FVa1UI4qq5J+fd7TQTvOJautidgIECBAgQIAAAQIECBBIW6CU0K7K5hNCu3Q22Eih3eVHv31obl/fsquWL19c1UqFdlXJjx7aaT5RbU3MToAAAQIECBAgQIAAAQLpCxQO7apuPiG0S2eTNYZ2d33hC/Ef9937xL8MDMyocpVCuyr1R77STvOJamtidgIECBAgQIAAAQIECBBIX6BwaFd18wmhXTqbrD60q7r5RL2K0K7aPdJ4e6zmE9XWw+wECBAgQIAAAQIECBAg0B0ChUK7FJpPCO3S2Wj1oV3WfGKPl7509Tcraj4htEtnX9SHdppPpFMXKyFAgAABAgQIECBAgACBtAUKhXYpNJ8Q2qWzwWqh3S8f+3F876ILBx+tsPmE0C6dfVEf2mk+kU5drIQAAQIECBAgQIAAAQIE0hbIHdrtcHhfvPz7tz3x2MDKSp9XJrRLZ4PVQrsbzzqr8uYTQrt09kUttFt+wcGx+MJ1g/ev+2llnYTTUbESAgQIECBAgAABAgQIECAwtkCu0O6ZwcEYXPPPcWh//7y7li27ORXkHadO3XLQkqWTdpgyJZUlTah1ZKHdG/74j2P7n/zk8X8ZGHh1KifvmXbVVqIW2k2d8uKhI/sOW7Z8+XWVdRKuVsLsBAgQIECAAAECBAgQIECgeYFcod2v/vWBmD1v7s0/XLFiXvNTtf+VQrv2G481QxbaDQ0NxWn9/fMuTSjMFdpVuy+y0G75Nevj0EP/4ImVN9+XzJW51aqYnQABAgQIECBAgAABAgQIjC3QWmgXES/7/o3x60c3xJZnnmnu2A5WIAvtpvf1TerglKaqE9jwta/F4e94xw/u+OY3X5cSTC20+8OZO0xOaV0TZS0//MmL44bbH43+/hPmLVt2dTJX5k4Uf+dJgAABAgQIECBAgAABAt0p0Fzw1nfcqvrTe8Xmn+/1i2+v2j21U971qKN+Z52pra/X17Pd5Mk7vHiXXT649vLL16R0rllo97OnB4/INvvW4YXV/n/tDZD9+Vj/v/G4bJjG8bI/G2+c+tc0M2b9a1IybXUtmwZfMuOGOzbOavU4rydAgAABAgQIECBAgAABAhNVoLnQbqLqOG8CBAgQIECAAAECBAgQIECAAAECFQgI7SpANyUBAgQIECBAgAABAgQIECBAgACBsQSEdvYHAQIECBAgQIAAAQIECBAgQIAAgcQEhHaJFcRyCBAgQIAAAQIECBAgQIAAAQIECAjt7AECBAgQIECAAAECBAgQIECAAAECiQkI7RIriOUQIECAAAECBAgQIECAAAECBAgQENrZAwQIECBAgAABAgQIECBAgAABAgQSExDaJVYQyyFAgAABAgQIECBAgAABAgQIECAgtLMHCBAgQIAAAQIECBAgQIAAAQIECCQmILRLrCCWQ4AAAQIECBAgQIAAAQIECBAgQEBoZw8QIECAAAECBAgQIECAAAECBAgQSExAaJdYQSyHAAECBAgQIECAAAECBAgQIECAgNDOHiBAgAABAgQIECBAgAABAgQIECCQmIDQLrGCWA4BAgQIECBAgAABAgQIECBAgAABoZ09QIAAAQIECBAgQIAAAQIECBAgQCAxAaFdYgWxHAIECBAgQIAAAQIECBAgQIAAAQJCO3uAAAECBAgQIECAAAECBAgQIECAQGICQrvECmI5BAgQIECAAAECBAgQIECAAAECBIR29gABAgQIECBAgAABAgQIECBAgACBxASEdokVxHIIECBAgAABAgQIECBAgAABAgQICO3sAQIECBAgQIAAAQIECBAgQIAAAQKJCQjtEiuI5RAgQIAAAQIECBAgQIAAAQIECBAQ2tkDBAgQIECAAAECBAgQIECAAAECBBITENolVhDLIUCAAAECBAgQIECAAAECBAgQICC0swcIECBAgAABAgQIECBAgAABAgQIJCYgtEusIJZDgAABAgQIECBAgAABAgQIECBAQGhnDxAgQIAAAQIECBAgQIAAAQIECBBITEBol1hBLIcAAQIECBAgQIAAAQIECBAgQICA0M4eIECAAAECBAgQIECAAAECBAgQIJCYgNAusYJYDgECBAgQIECAAAECBAgQIECAAAGhnT1AgAABAgQIECBAgAABAgQIECBAIDEBoV1iBbEcAgQIECBAgAABAgQIECBAgAABAkI7e4AAAQIECBAgQIAAAQIECBAgQIBAYgJCu8QKYjkECBAgQIAAAQIECBAgQIAAAQIEhHb2AAECBAgQIECAAAECBAgQIECAAIHEBIR2iRXEcggQIECAAAECBAgQIECAAAECBAgI7ewBAgQIECBAgAABAgQIECBAgAABAokJCO0SK4jlECBAgAABAgQIECBAgAABAgQIEBDa2QMECBAgQIAAAQIECBAgQIAAAQIEEhMQ2iVWEMshQIAAAQIECBAgQIAAAQIECBAgILSzBwgQIECAAAECBAgQIECAAAECBAgkJiC0S6wglkOAAAECBAgQIECAAAECBAgQIEBAaGcPECBAgAABAgQIECBAgAABAgQIEEhMQGiXWEEshwABAgQIECBAgAABAgQIECBAgIDQzh4gQIAAAQIECBAgQIAAAQIECBAgkJiA0C6xglgOAQIECBAgQIAAAQIECBAgQIAAAaGdPUCAAAECBAgQIECAAAECBAgQIEAgMQGhXWIFsRwCBAgQIECAAAECBAgQIECAAAECQjt7gAABAgQIECBAgAABAgQIECBAgEBiAkK7xApiOQQIECBAgAABAgQIECBAgAABAgSEdvYAAQIECBAgQIAAAQIECBAgQIAAgcQEhHaJFcRyCBAgQIAAAQIECBAgQIAAAQIECAjt7AECBAgQIECAAAECBAgQIECAAAECiQkI7RIriOUQIECAAAECBAgQIECAAAECBAgQENrZAwQIECBAgAABAgQIECBAgAABAgQSExDaJVYQyyFAgAABAgQIECBAgAABAgQIECAgtLMHCBAgQIAAAQIECBAgQIAAAQIECCQmILRLrCCWQ4AAAQIECBAgQIAAAQIECBAgQEBoZw8QIECAAAECBAgQIECAAAECBAgQSExAaJdYQSyHAAECBAgQIECAAAECBAgQIECAgNDOHiBAgAABAgQIECBAgAABAgQIECCQmIDQLrGCWA4BAgQIECBAgAABAgQIECBAgAABoZ09QIAAAQIECBAgQIAAAQIECBAgQCAxAaFdYgWxHAIECBAgQIAAAQIECBAgQIAAAQJCO3uAAAECBAgQIECAAAECBAgQIECAQGICQrvECmI5BAgQIECAAAECBAgQIECAAAECBIR29gABAgQIECBAgAABAgQIECBAgACBxASEdokVxHIIECBAgAABAgQIECBAgAABAgQICO3sAQIECBAgQIAAAQIECBAgQIAAAQKJCQjtEiuI5RAgQIAAAQIECBAgQIAAAQIECBAQ2tkDBAgQIECAAAECBAgQIECAAAECBBITENolVhDLIUCAAAECBAgQIECAAAECBAgQICC0swcIECBAgAABAgQIECBAgAABAgQIJCYgtEusIJZDgAABAgQIECBAgAABAgQIECBAQGhnDxAgQIAAAQIECBAgQIAAAQIECBBITEBol1hBLIcAAQIECBAgQIAAAQIECBAgQICA0M4eIECAAAECBAgQIECAAAECBAgQIJCYgNAusYJYDgECBAgQIECAAAECBAgQIECAAAGhnT1AgAABAgQIECBAgAABAgQIECBAIDEBoV1iBbEcAgQIECBAgAABAgQIECBAgAABAkI7e4AAAQIECBAgQIAAAQIECBAgQIBAYgJCu8QKYjkECBAgQIAAAQIECBAgQIAAAQIEhHb2AAECBAgQIECAAAECBAgQIECAAIHEBIR2iRXEcggQIECAAAECBAgQIECAAAECBAgI7ewBAgQIECBAgAABAgQIECBKjrnEAAAK8klEQVRAgAABAokJCO0SK4jlECBAgAABAgQIECBAgAABAgQIEBDa2QMECBAgQIAAAQIECBAgQIAAAQIEEhMQ2iVWEMshQIAAAQIECBAgQIAAAQIECBAgILSzBwgQIECAAAECBAgQIECAAAECBAgkJiC0S6wglkOAAAECBAgQIECAAAECBAgQIEBAaGcPECBAgAABAgQIECBAgAABAgQIEEhMQGiXWEEshwABAgQIECBAgAABAgQIECBAgIDQzh4gQIAAAQIECBAgQIAAAQIECBAgkJiA0C6xglgOAQIECBAgQIAAAQIECBAgQIAAAaGdPUCAAAECBAgQIECAAAECBAgQIEAgMQGhXWIFsRwCBAgQIECAAAECBAgQIECAAAECQjt7gAABAgQIECBAgAABAgQIECBAgEBiAkK7xApiOQQIECBAgAABAgQIECBAgAABAgSEdvYAAQIECBAgQIAAAQIECBAgQIAAgcQEhHaJFcRyCBAgQIAAAQIECBAgQIAAAQIECAjt7AECBAgQIECAAAECBAgQIECAAAECiQkI7RIriOUQIECAAAECBAgQIECAAAECBAgQENrZAwQIECBAgAABAgQIECBAgAABAgQSExDaJVYQyyFAgAABAgQIECBAgAABAgQIECAgtLMHCBAgQIAAAQIECBAgQIAAAQIECCQmILRLrCCWQ4AAAQIECBAgQIAAAQIECBAgQEBoZw8QIECAAAECBAgQIECAAAECBAgQSExAaJdYQSyHAAECBAgQIECAAAECBAgQIECAgNDOHiBAgAABAgQIECBAgAABAgQIECCQmIDQLrGCWA4BAgQIECBAgAABAgQIECBAgAABoZ09QIAAAQIECBAgQIAAAQIECBAgQCAxAaFdYgWxHAIECBAgQIAAAQIECBAgQIAAAQJCO3uAAAECBAgQIECAAAECBAgQIECAQGICQrvECmI5BAgQIECAAAECBAgQIECAAAECBIR29gABAgQIECBAgAABAgQIECBAgACBxASEdokVxHIIECBAgAABAgQIECBAgAABAgQICO3sAQIECBAgQIAAAQIECBAgQIAAAQKJCQjtEiuI5RAgQIAAAQIECBAgQIAAAQIECBAQ2tkDBAgQIECAAAECBAgQIECAAAECBBITENolVhDLIUCAAAECBAgQIECAAAECBAgQICC0swcIECBAgAABAgQIECBAgAABAgQIJCYgtEusIJZDgAABAgQIECBAgAABAgQIECBAQGhnDxAgQIAAAQIECBAgQIAAAQIECBBITEBol1hBLIcAAQIECBAgQIAAAQIECBAgQICA0M4eIECAAAECBAgQIECAAAECBAgQIJCYgNAusYJYDgECBAgQIECAAAECBAgQIECAAAGhnT1AgAABAgQIECBAgAABAgQIECBAIDEBoV1iBbEcAgQIECBAgAABAgQIECBAgAABAkI7e4AAAQIECBAgQIAAAQIECBAgQIBAYgJCu8QKYjkECBAgQIAAAQIECBAgQIAAAQIEhHb2AAECBAgQIECAAAECBAgQIECAAIHEBIR2iRXEcggQIECAAAECBAgQIECAAAECBAgI7ewBAgQIECBAgAABAgQIECBAgAABAokJCO0SK4jlECBAgAABAgQIECBAgAABAgQIEBDa2QMECBAgQIAAAQIECBAgQIAAAQIEEhMQ2iVWEMshQIAAAQIECBAgQIAAAQIECBAgILSzBwgQIECAAAECBAgQIECAAAECBAgkJiC0S6wglkOAAAECBAgQIECAAAECBAgQIEBAaGcPECBAgAABAgQIECBAgAABAgQIEEhMQGiXWEEshwABAgQIECBAgAABAgQIECBAgIDQzh4gQIAAAQIECBAgQIAAAQIECBAgkJiA0C6xglgOAQIECBAgQIAAAQIECBAgQIAAAaGdPUCAAAECBAgQIECAAAECBAgQIEAgMQGhXWIFsRwCBAgQIECAAAECBAgQIPD/t2PHRAAAMBDC/LvGBkMc9NKfIECAAAHRzgYIECBAgAABAgQIECBAgAABAgQIzAREu9lDnEOAAAECBAgQIECAAAECBAgQIEBAtLMBAgQIECBAgAABAgQIECBAgAABAjMB0W72EOcQIECAAAECBAgQIECAAAECBAgQEO1sgAABAgQIECBAgAABAgQIECBAgMBMQLSbPcQ5BAgQIECAAAECBAgQIECAAAECBEQ7GyBAgAABAgQIECBAgAABAgQIECAwExDtZg9xDgECBAgQIECAAAECBAgQIECAAAHRzgYIECBAgAABAgQIECBAgAABAgQIzAREu9lDnEOAAAECBAgQIECAAAECBAgQIEBAtLMBAgQIECBAgAABAgQIECBAgAABAjMB0W72EOcQIECAAAECBAgQIECAAAECBAgQEO1sgAABAgQIECBAgAABAgQIECBAgMBMQLSbPcQ5BAgQIECAAAECBAgQIECAAAECBEQ7GyBAgAABAgQIECBAgAABAgQIECAwExDtZg9xDgECBAgQIECAAAECBAgQIECAAAHRzgYIECBAgAABAgQIECBAgAABAgQIzAREu9lDnEOAAAECBAgQIECAAAECBAgQIEBAtLMBAgQIECBAgAABAgQIECBAgAABAjMB0W72EOcQIECAAAECBAgQIECAAAECBAgQEO1sgAABAgQIECBAgAABAgQIECBAgMBMQLSbPcQ5BAgQIECAAAECBAgQIECAAAECBEQ7GyBAgAABAgQIECBAgAABAgQIECAwExDtZg9xDgECBAgQIECAAAECBAgQIECAAAHRzgYIECBAgAABAgQIECBAgAABAgQIzAREu9lDnEOAAAECBAgQIECAAAECBAgQIEBAtLMBAgQIECBAgAABAgQIECBAgAABAjMB0W72EOcQIECAAAECBAgQIECAAAECBAgQEO1sgAABAgQIECBAgAABAgQIECBAgMBMQLSbPcQ5BAgQIECAAAECBAgQIECAAAECBEQ7GyBAgAABAgQIECBAgAABAgQIECAwExDtZg9xDgECBAgQIECAAAECBAgQIECAAAHRzgYIECBAgAABAgQIECBAgAABAgQIzAREu9lDnEOAAAECBAgQIECAAAECBAgQIEBAtLMBAgQIECBAgAABAgQIECBAgAABAjMB0W72EOcQIECAAAECBAgQIECAAAECBAgQEO1sgAABAgQIECBAgAABAgQIECBAgMBMQLSbPcQ5BAgQIECAAAECBAgQIECAAAECBEQ7GyBAgAABAgQIECBAgAABAgQIECAwExDtZg9xDgECBAgQIECAAAECBAgQIECAAAHRzgYIECBAgAABAgQIECBAgAABAgQIzAREu9lDnEOAAAECBAgQIECAAAECBAgQIEBAtLMBAgQIECBAgAABAgQIECBAgAABAjMB0W72EOcQIECAAAECBAgQIECAAAECBAgQEO1sgAABAgQIECBAgAABAgQIECBAgMBMQLSbPcQ5BAgQIECAAAECBAgQIECAAAECBEQ7GyBAgAABAgQIECBAgAABAgQIECAwExDtZg9xDgECBAgQIECAAAECBAgQIECAAAHRzgYIECBAgAABAgQIECBAgAABAgQIzAREu9lDnEOAAAECBAgQIECAAAECBAgQIEBAtLMBAgQIECBAgAABAgQIECBAgAABAjMB0W72EOcQIECAAAECBAgQIECAAAECBAgQEO1sgAABAgQIECBAgAABAgQIECBAgMBMIKBjCQkfK9GoAAAAAElFTkSuQmCC;" vertex="1" parent="1">
          <mxGeometry x="120" y="30" width="1261" height="508" as="geometry" />
        </mxCell>
        <mxCell id="g_2Y7l3t8IoMAdNt34aa-2" value="" style="shape=cube;whiteSpace=wrap;html=1;boundedLbl=1;backgroundOutline=1;darkOpacity=0.05;darkOpacity2=0.1;flipH=1;fillColor=#1ae2ff;" vertex="1" parent="1">
          <mxGeometry x="250" y="390" width="30" height="90" as="geometry" />
        </mxCell>
        <mxCell id="g_2Y7l3t8IoMAdNt34aa-3" value="" style="shape=cube;whiteSpace=wrap;html=1;boundedLbl=1;backgroundOutline=1;darkOpacity=0.05;darkOpacity2=0.1;flipH=1;fillColor=#8ef6f7;" vertex="1" parent="1">
          <mxGeometry x="430" y="390" width="30" height="90" as="geometry" />
        </mxCell>
        <mxCell id="g_2Y7l3t8IoMAdNt34aa-4" value="" style="shape=cube;whiteSpace=wrap;html=1;boundedLbl=1;backgroundOutline=1;darkOpacity=0.05;darkOpacity2=0.1;flipH=1;fillColor=#fff672;" vertex="1" parent="1">
          <mxGeometry x="610" y="390" width="30" height="90" as="geometry" />
        </mxCell>
        <mxCell id="g_2Y7l3t8IoMAdNt34aa-7" value="" style="shape=cube;whiteSpace=wrap;html=1;boundedLbl=1;backgroundOutline=1;darkOpacity=0.05;darkOpacity2=0.1;flipH=1;fillColor=#ffffe7;" vertex="1" parent="1">
          <mxGeometry x="780" y="390" width="30" height="90" as="geometry" />
        </mxCell>
        <mxCell id="g_2Y7l3t8IoMAdNt34aa-8" value="" style="shape=cube;whiteSpace=wrap;html=1;boundedLbl=1;backgroundOutline=1;darkOpacity=0.05;darkOpacity2=0.1;flipH=1;fillColor=#e5344d;" vertex="1" parent="1">
          <mxGeometry x="950" y="390" width="30" height="90" as="geometry" />
        </mxCell>
        <mxCell id="g_2Y7l3t8IoMAdNt34aa-9" value="&lt;font style=&quot;font-size: 24px&quot;&gt;Input&lt;/font&gt;" style="text;html=1;strokeColor=none;fillColor=none;align=center;verticalAlign=middle;whiteSpace=wrap;rounded=0;" vertex="1" parent="1">
          <mxGeometry x="320" y="425" width="40" height="20" as="geometry" />
        </mxCell>
        <mxCell id="g_2Y7l3t8IoMAdNt34aa-10" value="&lt;font style=&quot;font-size: 24px&quot;&gt;Conv&lt;/font&gt;" style="text;html=1;strokeColor=none;fillColor=none;align=center;verticalAlign=middle;whiteSpace=wrap;rounded=0;" vertex="1" parent="1">
          <mxGeometry x="520" y="425" width="40" height="20" as="geometry" />
        </mxCell>
        <mxCell id="g_2Y7l3t8IoMAdNt34aa-11" value="&lt;font style=&quot;font-size: 24px&quot;&gt;ReLU&lt;/font&gt;" style="text;html=1;strokeColor=none;fillColor=none;align=center;verticalAlign=middle;whiteSpace=wrap;rounded=0;" vertex="1" parent="1">
          <mxGeometry x="680" y="425" width="40" height="20" as="geometry" />
        </mxCell>
        <mxCell id="g_2Y7l3t8IoMAdNt34aa-12" value="&lt;font style=&quot;font-size: 24px&quot;&gt;Pool&lt;/font&gt;" style="text;html=1;strokeColor=none;fillColor=none;align=center;verticalAlign=middle;whiteSpace=wrap;rounded=0;" vertex="1" parent="1">
          <mxGeometry x="850" y="425" width="40" height="20" as="geometry" />
        </mxCell>
        <mxCell id="g_2Y7l3t8IoMAdNt34aa-13" value="&lt;font style=&quot;font-size: 24px&quot;&gt;Output&lt;br&gt;&lt;/font&gt;" style="text;html=1;strokeColor=none;fillColor=none;align=center;verticalAlign=middle;whiteSpace=wrap;rounded=0;" vertex="1" parent="1">
          <mxGeometry x="1030" y="425" width="40" height="20" as="geometry" />
        </mxCell>
      </root>
    </mxGraphModel>
  </diagram>
</mxfile>
